# xmcd
#
# Track frame offsets:
#	150
#	13738
#	30500
#	53968
#	75339
#	94653
#	116981
#	135067
#	153112
#	173120
#	197027
#	220017
#	244872
#	258094
#	280141
#	300583
#
# Disc length: 4485 seconds
#
# Revision: 0
# Processed by: cddbd v1.5PL3 Copyright (c) Steve Scherf et al.
# Submitted via: audiograbber 1.82.01
#
DISCID=c4118310
DTITLE=the police - very best of [CDtwo)
DYEAR=2002
DGENRE=Pop
TTITLE0=spirits in the material world
TTITLE1=invisible sun
TTITLE2=wrapped around your finger
TTITLE3=so lonely
TTITLE4=the bed's too big without you
TTITLE5=synchronicity
TTITLE6=tea in the sahara
TTITLE7=new world blues
TTITLE8=lady of delight
TTITLE9=30'clock shot - live
TTITLE10=electron romance
TTITLE11=towers tumble
TTITLE12=visions of the night
TTITLE13=message in a bottle (new classic rockmix)
TTITLE14=lady of delight - live
TTITLE15=electron romance - live
EXTD=
EXTT0=
EXTT1=
EXTT2=
EXTT3=
EXTT4=
EXTT5=
EXTT6=
EXTT7=
EXTT8=
EXTT9=
EXTT10=
EXTT11=
EXTT12=
EXTT13=
EXTT14=
EXTT15=
PLAYORDER=
